<svg xmlns="http://www.w3.org/2000/svg" width="72" height="72" viewBox="0 0 72 72" fill="none">
<path d="M37.85 62.6331L34.0061 62.6331C24.5243 62.6331 16.7998 54.9086 16.7998 45.4269L16.7998 26.6647C16.7998 17.183 24.5243 9.4585 34.0061 9.4585L37.85 9.4585C47.3318 9.4585 55.0563 17.183 55.0563 26.6647L55.0563 45.4269C55.0563 54.9269 47.3318 62.6331 37.85 62.6331ZM34.0061 14.0346C27.0503 14.0346 21.3759 19.709 21.3759 26.6647L21.3759 45.4269C21.3759 52.3826 27.0503 58.057 34.0061 58.057L37.85 58.057C44.8057 58.057 50.4801 52.3826 50.4801 45.4269L50.4801 26.6647C50.4801 19.709 44.8057 14.0346 37.85 14.0346L34.0061 14.0346Z" fill="black"/>
<path d="M33.5488 18.7021L38.125 18.7021L38.125 30.7831L33.5488 30.7831L33.5488 18.7021Z" fill="black"/>
</svg>