<svg width="308" height="32" viewBox="0 0 308 32" fill="none" xmlns="http://www.w3.org/2000/svg">
<rect x="0.5" y="0.5" width="307" height="31" rx="3.5" stroke="#8CB8FF"/>
<path d="M95.2294 11.085L87.9219 17.9053V20.6833C87.9219 21.028 88.3684 21.2006 88.6295 20.9569L89.9104 19.7614L95.2294 11.085Z" fill="#C6DDFF"/>
<path d="M87.9223 17.9058L91.6638 21.398C92.0996 21.8048 92.8417 21.6413 93.0366 21.0956L97.0405 9.88495C97.1485 9.58253 96.8403 9.29474 96.5161 9.3955L84.5048 13.1324C83.92 13.3144 83.7448 14.007 84.1808 14.4138L86.6987 16.7638L95.23 11.0855L87.9223 17.9058Z" fill="#8CB8FF"/>
<path d="M112.319 21.14C111.553 21.14 110.849 21.0187 110.205 20.776C109.57 20.524 109.015 20.174 108.539 19.726C108.063 19.2687 107.694 18.732 107.433 18.116C107.171 17.5 107.041 16.828 107.041 16.1C107.041 15.372 107.171 14.7 107.433 14.084C107.694 13.468 108.063 12.936 108.539 12.488C109.024 12.0307 109.589 11.6807 110.233 11.438C110.877 11.186 111.581 11.06 112.347 11.06C113.177 11.06 113.924 11.1953 114.587 11.466C115.259 11.7367 115.823 12.1333 116.281 12.656L115.133 13.776C114.75 13.3933 114.335 13.1133 113.887 12.936C113.448 12.7493 112.963 12.656 112.431 12.656C111.917 12.656 111.441 12.74 111.003 12.908C110.564 13.076 110.186 13.314 109.869 13.622C109.551 13.93 109.304 14.294 109.127 14.714C108.959 15.134 108.875 15.596 108.875 16.1C108.875 16.5947 108.959 17.052 109.127 17.472C109.304 17.892 109.551 18.2607 109.869 18.578C110.186 18.886 110.559 19.124 110.989 19.292C111.418 19.46 111.894 19.544 112.417 19.544C112.902 19.544 113.369 19.4693 113.817 19.32C114.274 19.1613 114.708 18.9 115.119 18.536L116.155 19.894C115.641 20.3047 115.044 20.6173 114.363 20.832C113.691 21.0373 113.009 21.14 112.319 21.14ZM114.433 19.656V15.988H116.155V19.894L114.433 19.656ZM121.901 21.098C121.071 21.098 120.343 20.9347 119.717 20.608C119.101 20.272 118.621 19.8147 118.275 19.236C117.939 18.6573 117.771 17.9993 117.771 17.262C117.771 16.5153 117.935 15.8573 118.261 15.288C118.597 14.7093 119.055 14.2567 119.633 13.93C120.221 13.6033 120.889 13.44 121.635 13.44C122.363 13.44 123.012 13.5987 123.581 13.916C124.151 14.2333 124.599 14.6813 124.925 15.26C125.252 15.8387 125.415 16.52 125.415 17.304C125.415 17.3787 125.411 17.4627 125.401 17.556C125.401 17.6493 125.397 17.738 125.387 17.822H119.157V16.66H124.463L123.777 17.024C123.787 16.5947 123.698 16.2167 123.511 15.89C123.325 15.5633 123.068 15.3067 122.741 15.12C122.424 14.9333 122.055 14.84 121.635 14.84C121.206 14.84 120.828 14.9333 120.501 15.12C120.184 15.3067 119.932 15.568 119.745 15.904C119.568 16.2307 119.479 16.618 119.479 17.066V17.346C119.479 17.794 119.582 18.1907 119.787 18.536C119.993 18.8813 120.282 19.1473 120.655 19.334C121.029 19.5207 121.458 19.614 121.943 19.614C122.363 19.614 122.741 19.5487 123.077 19.418C123.413 19.2873 123.712 19.082 123.973 18.802L124.911 19.88C124.575 20.272 124.151 20.5753 123.637 20.79C123.133 20.9953 122.555 21.098 121.901 21.098ZM131.338 13.44C131.936 13.44 132.468 13.5567 132.934 13.79C133.41 14.0233 133.784 14.3827 134.054 14.868C134.325 15.344 134.46 15.96 134.46 16.716V21H132.71V16.94C132.71 16.2773 132.552 15.7827 132.234 15.456C131.926 15.1293 131.492 14.966 130.932 14.966C130.522 14.966 130.158 15.05 129.84 15.218C129.523 15.386 129.276 15.638 129.098 15.974C128.93 16.3007 128.846 16.716 128.846 17.22V21H127.096V13.524H128.762V15.54L128.468 14.924C128.73 14.448 129.108 14.084 129.602 13.832C130.106 13.5707 130.685 13.44 131.338 13.44ZM140.208 21.098C139.377 21.098 138.649 20.9347 138.024 20.608C137.408 20.272 136.927 19.8147 136.582 19.236C136.246 18.6573 136.078 17.9993 136.078 17.262C136.078 16.5153 136.241 15.8573 136.568 15.288C136.904 14.7093 137.361 14.2567 137.94 13.93C138.528 13.6033 139.195 13.44 139.942 13.44C140.67 13.44 141.319 13.5987 141.888 13.916C142.457 14.2333 142.905 14.6813 143.232 15.26C143.559 15.8387 143.722 16.52 143.722 17.304C143.722 17.3787 143.717 17.4627 143.708 17.556C143.708 17.6493 143.703 17.738 143.694 17.822H137.464V16.66H142.77L142.084 17.024C142.093 16.5947 142.005 16.2167 141.818 15.89C141.631 15.5633 141.375 15.3067 141.048 15.12C140.731 14.9333 140.362 14.84 139.942 14.84C139.513 14.84 139.135 14.9333 138.808 15.12C138.491 15.3067 138.239 15.568 138.052 15.904C137.875 16.2307 137.786 16.618 137.786 17.066V17.346C137.786 17.794 137.889 18.1907 138.094 18.536C138.299 18.8813 138.589 19.1473 138.962 19.334C139.335 19.5207 139.765 19.614 140.25 19.614C140.67 19.614 141.048 19.5487 141.384 19.418C141.72 19.2873 142.019 19.082 142.28 18.802L143.218 19.88C142.882 20.272 142.457 20.5753 141.944 20.79C141.44 20.9953 140.861 21.098 140.208 21.098ZM145.403 21V13.524H147.069V15.582L146.873 14.98C147.097 14.476 147.447 14.0933 147.923 13.832C148.408 13.5707 149.01 13.44 149.729 13.44V15.106C149.654 15.0873 149.584 15.078 149.519 15.078C149.454 15.0687 149.388 15.064 149.323 15.064C148.66 15.064 148.133 15.26 147.741 15.652C147.349 16.0347 147.153 16.6087 147.153 17.374V21H145.403ZM155.286 21V19.488L155.188 19.166V16.52C155.188 16.0067 155.034 15.61 154.726 15.33C154.418 15.0407 153.952 14.896 153.326 14.896C152.906 14.896 152.491 14.9613 152.08 15.092C151.679 15.2227 151.338 15.4047 151.058 15.638L150.372 14.364C150.774 14.056 151.25 13.8273 151.8 13.678C152.36 13.5193 152.939 13.44 153.536 13.44C154.619 13.44 155.454 13.7013 156.042 14.224C156.64 14.7373 156.938 15.5353 156.938 16.618V21H155.286ZM152.934 21.098C152.374 21.098 151.884 21.0047 151.464 20.818C151.044 20.622 150.718 20.356 150.484 20.02C150.26 19.6747 150.148 19.2873 150.148 18.858C150.148 18.438 150.246 18.06 150.442 17.724C150.648 17.388 150.979 17.122 151.436 16.926C151.894 16.73 152.5 16.632 153.256 16.632H155.426V17.794H153.382C152.785 17.794 152.384 17.892 152.178 18.088C151.973 18.2747 151.87 18.508 151.87 18.788C151.87 19.1053 151.996 19.3573 152.248 19.544C152.5 19.7307 152.85 19.824 153.298 19.824C153.728 19.824 154.11 19.726 154.446 19.53C154.792 19.334 155.039 19.0447 155.188 18.662L155.482 19.712C155.314 20.1507 155.011 20.4913 154.572 20.734C154.143 20.9767 153.597 21.098 152.934 21.098ZM161.998 21.098C161.177 21.098 160.542 20.888 160.094 20.468C159.646 20.0387 159.422 19.4087 159.422 18.578V11.872H161.172V18.536C161.172 18.8907 161.261 19.166 161.438 19.362C161.625 19.558 161.881 19.656 162.208 19.656C162.6 19.656 162.927 19.5533 163.188 19.348L163.678 20.594C163.473 20.762 163.221 20.888 162.922 20.972C162.623 21.056 162.315 21.098 161.998 21.098ZM158.19 14.98V13.58H163.174V14.98H158.19ZM168.386 21.098C167.555 21.098 166.827 20.9347 166.202 20.608C165.586 20.272 165.105 19.8147 164.76 19.236C164.424 18.6573 164.256 17.9993 164.256 17.262C164.256 16.5153 164.419 15.8573 164.746 15.288C165.082 14.7093 165.539 14.2567 166.118 13.93C166.706 13.6033 167.373 13.44 168.12 13.44C168.848 13.44 169.496 13.5987 170.066 13.916C170.635 14.2333 171.083 14.6813 171.41 15.26C171.736 15.8387 171.9 16.52 171.9 17.304C171.9 17.3787 171.895 17.4627 171.886 17.556C171.886 17.6493 171.881 17.738 171.872 17.822H165.642V16.66H170.948L170.262 17.024C170.271 16.5947 170.182 16.2167 169.996 15.89C169.809 15.5633 169.552 15.3067 169.226 15.12C168.908 14.9333 168.54 14.84 168.12 14.84C167.69 14.84 167.312 14.9333 166.986 15.12C166.668 15.3067 166.416 15.568 166.23 15.904C166.052 16.2307 165.964 16.618 165.964 17.066V17.346C165.964 17.794 166.066 18.1907 166.272 18.536C166.477 18.8813 166.766 19.1473 167.14 19.334C167.513 19.5207 167.942 19.614 168.428 19.614C168.848 19.614 169.226 19.5487 169.562 19.418C169.898 19.2873 170.196 19.082 170.458 18.802L171.396 19.88C171.06 20.272 170.635 20.5753 170.122 20.79C169.618 20.9953 169.039 21.098 168.386 21.098ZM176.232 21L180.642 11.2H182.434L186.858 21H184.954L181.16 12.166H181.888L178.108 21H176.232ZM178.262 18.732L178.752 17.304H184.044L184.534 18.732H178.262ZM191.256 23.814C190.565 23.814 189.888 23.7207 189.226 23.534C188.572 23.3567 188.036 23.0953 187.616 22.75L188.4 21.434C188.726 21.7047 189.137 21.9193 189.632 22.078C190.136 22.246 190.644 22.33 191.158 22.33C191.979 22.33 192.581 22.1387 192.964 21.756C193.346 21.3827 193.538 20.818 193.538 20.062V18.732L193.678 17.038L193.622 15.344V13.524H195.288V19.866C195.288 21.2193 194.942 22.2133 194.252 22.848C193.561 23.492 192.562 23.814 191.256 23.814ZM191.032 20.664C190.322 20.664 189.678 20.5147 189.1 20.216C188.53 19.908 188.078 19.4833 187.742 18.942C187.415 18.4007 187.252 17.766 187.252 17.038C187.252 16.3193 187.415 15.6893 187.742 15.148C188.078 14.6067 188.53 14.1867 189.1 13.888C189.678 13.5893 190.322 13.44 191.032 13.44C191.666 13.44 192.236 13.566 192.74 13.818C193.244 14.07 193.645 14.462 193.944 14.994C194.252 15.526 194.406 16.2073 194.406 17.038C194.406 17.8687 194.252 18.5547 193.944 19.096C193.645 19.628 193.244 20.0247 192.74 20.286C192.236 20.538 191.666 20.664 191.032 20.664ZM191.298 19.18C191.736 19.18 192.128 19.0913 192.474 18.914C192.819 18.7273 193.085 18.4753 193.272 18.158C193.468 17.8313 193.566 17.458 193.566 17.038C193.566 16.618 193.468 16.2493 193.272 15.932C193.085 15.6053 192.819 15.358 192.474 15.19C192.128 15.0127 191.736 14.924 191.298 14.924C190.859 14.924 190.462 15.0127 190.108 15.19C189.762 15.358 189.492 15.6053 189.296 15.932C189.109 16.2493 189.016 16.618 189.016 17.038C189.016 17.458 189.109 17.8313 189.296 18.158C189.492 18.4753 189.762 18.7273 190.108 18.914C190.462 19.0913 190.859 19.18 191.298 19.18ZM202.194 21V19.488L202.096 19.166V16.52C202.096 16.0067 201.942 15.61 201.634 15.33C201.326 15.0407 200.86 14.896 200.234 14.896C199.814 14.896 199.399 14.9613 198.988 15.092C198.587 15.2227 198.246 15.4047 197.966 15.638L197.28 14.364C197.682 14.056 198.158 13.8273 198.708 13.678C199.268 13.5193 199.847 13.44 200.444 13.44C201.527 13.44 202.362 13.7013 202.95 14.224C203.548 14.7373 203.846 15.5353 203.846 16.618V21H202.194ZM199.842 21.098C199.282 21.098 198.792 21.0047 198.372 20.818C197.952 20.622 197.626 20.356 197.392 20.02C197.168 19.6747 197.056 19.2873 197.056 18.858C197.056 18.438 197.154 18.06 197.35 17.724C197.556 17.388 197.887 17.122 198.344 16.926C198.802 16.73 199.408 16.632 200.164 16.632H202.334V17.794H200.29C199.693 17.794 199.292 17.892 199.086 18.088C198.881 18.2747 198.778 18.508 198.778 18.788C198.778 19.1053 198.904 19.3573 199.156 19.544C199.408 19.7307 199.758 19.824 200.206 19.824C200.636 19.824 201.018 19.726 201.354 19.53C201.7 19.334 201.947 19.0447 202.096 18.662L202.39 19.712C202.222 20.1507 201.919 20.4913 201.48 20.734C201.051 20.9767 200.505 21.098 199.842 21.098ZM206.092 21V13.524H207.842V21H206.092ZM206.974 12.292C206.648 12.292 206.377 12.1893 206.162 11.984C205.957 11.7787 205.854 11.5313 205.854 11.242C205.854 10.9433 205.957 10.696 206.162 10.5C206.377 10.2947 206.648 10.192 206.974 10.192C207.301 10.192 207.567 10.29 207.772 10.486C207.987 10.6727 208.094 10.9107 208.094 11.2C208.094 11.508 207.992 11.7693 207.786 11.984C207.581 12.1893 207.31 12.292 206.974 12.292ZM214.381 13.44C214.979 13.44 215.511 13.5567 215.977 13.79C216.453 14.0233 216.827 14.3827 217.097 14.868C217.368 15.344 217.503 15.96 217.503 16.716V21H215.753V16.94C215.753 16.2773 215.595 15.7827 215.277 15.456C214.969 15.1293 214.535 14.966 213.975 14.966C213.565 14.966 213.201 15.05 212.883 15.218C212.566 15.386 212.319 15.638 212.141 15.974C211.973 16.3007 211.889 16.716 211.889 17.22V21H210.139V13.524H211.805V15.54L211.511 14.924C211.773 14.448 212.151 14.084 212.645 13.832C213.149 13.5707 213.728 13.44 214.381 13.44Z" fill="#8CB8FF"/>
</svg>
