<svg width="34" height="34" viewBox="0 0 34 34" fill="none" xmlns="http://www.w3.org/2000/svg">
<g filter="url(#filter0_d_3130_8327)">
<rect x="11" y="9" width="12" height="12" rx="6" fill="white"/>
<rect x="9.5" y="7.5" width="15" height="15" rx="7.5" stroke="white" stroke-width="3"/>
<path d="M17 20.625C13.8935 20.625 11.375 18.1065 11.375 15C11.375 11.8935 13.8935 9.375 17 9.375C20.1065 9.375 22.625 11.8935 22.625 15C22.625 18.1065 20.1065 20.625 17 20.625ZM17 19.875C19.6925 19.875 21.875 17.6925 21.875 15C21.875 12.3075 19.6925 10.125 17 10.125C14.3075 10.125 12.125 12.3075 12.125 15C12.125 17.6925 14.3075 19.875 17 19.875Z" fill="#4680FF"/>
<path d="M14 15.375C13.9005 15.375 13.8052 15.3355 13.7348 15.2652C13.6645 15.1948 13.625 15.0995 13.625 15C13.625 14.9005 13.6645 14.8052 13.7348 14.7348C13.8052 14.6645 13.9005 14.625 14 14.625H20C20.0995 14.625 20.1948 14.6645 20.2652 14.7348C20.3355 14.8052 20.375 14.9005 20.375 15C20.375 15.0995 20.3355 15.1948 20.2652 15.2652C20.1948 15.3355 20.0995 15.375 20 15.375H14Z" fill="#4680FF"/>
<path d="M16.625 11.999C16.625 11.8996 16.6645 11.8042 16.7348 11.7339C16.8052 11.6635 16.9005 11.624 17 11.624C17.0995 11.624 17.1948 11.6635 17.2652 11.7339C17.3355 11.8042 17.375 11.8996 17.375 11.999V17.999C17.375 18.0985 17.3355 18.1939 17.2652 18.2642C17.1948 18.3345 17.0995 18.374 17 18.374C16.9005 18.374 16.8052 18.3345 16.7348 18.2642C16.6645 18.1939 16.625 18.0985 16.625 17.999V11.999Z" fill="#4680FF"/>
</g>
<defs>
<filter id="filter0_d_3130_8327" x="0" y="0" width="34" height="34" filterUnits="userSpaceOnUse" color-interpolation-filters="sRGB">
<feFlood flood-opacity="0" result="BackgroundImageFix"/>
<feColorMatrix in="SourceAlpha" type="matrix" values="0 0 0 0 0 0 0 0 0 0 0 0 0 0 0 0 0 0 127 0" result="hardAlpha"/>
<feOffset dy="2"/>
<feGaussianBlur stdDeviation="4"/>
<feColorMatrix type="matrix" values="0 0 0 0 0.12 0 0 0 0 0.146667 0 0 0 0 0.2 0 0 0 0.1 0"/>
<feBlend mode="normal" in2="BackgroundImageFix" result="effect1_dropShadow_3130_8327"/>
<feBlend mode="normal" in="SourceGraphic" in2="effect1_dropShadow_3130_8327" result="shape"/>
</filter>
</defs>
</svg>
