<svg width="32" height="32" viewBox="0 0 32 32" fill="none" xmlns="http://www.w3.org/2000/svg">
<g id="icon_&#230;&#183;&#187;&#229;&#138;&#160; 1" clip-path="url(#clip0_2824_3286)" filter="url(#filter0_d_2824_3286)">
<path id="Vector" d="M16 21.5C11.858 21.5 8.5 18.142 8.5 14C8.5 9.858 11.858 6.5 16 6.5C20.142 6.5 23.5 9.858 23.5 14C23.5 18.142 20.142 21.5 16 21.5ZM16 20.5C19.59 20.5 22.5 17.59 22.5 14C22.5 10.41 19.59 7.5 16 7.5C12.41 7.5 9.5 10.41 9.5 14C9.5 17.59 12.41 20.5 16 20.5Z" fill="#4680FF"/>
<path id="Vector_2" d="M12 14.5C11.8674 14.5 11.7402 14.4473 11.6464 14.3536C11.5527 14.2598 11.5 14.1326 11.5 14C11.5 13.8674 11.5527 13.7402 11.6464 13.6464C11.7402 13.5527 11.8674 13.5 12 13.5H20C20.1326 13.5 20.2598 13.5527 20.3536 13.6464C20.4473 13.7402 20.5 13.8674 20.5 14C20.5 14.1326 20.4473 14.2598 20.3536 14.3536C20.2598 14.4473 20.1326 14.5 20 14.5H12Z" fill="#4680FF"/>
<path id="Vector_3" d="M15.5 10C15.5 9.86739 15.5527 9.74021 15.6464 9.64645C15.7402 9.55268 15.8674 9.5 16 9.5C16.1326 9.5 16.2598 9.55268 16.3536 9.64645C16.4473 9.74021 16.5 9.86739 16.5 10V18C16.5 18.1326 16.4473 18.2598 16.3536 18.3536C16.2598 18.4473 16.1326 18.5 16 18.5C15.8674 18.5 15.7402 18.4473 15.6464 18.3536C15.5527 18.2598 15.5 18.1326 15.5 18V10Z" fill="#4680FF"/>
</g>
<defs>
<filter id="filter0_d_2824_3286" x="0" y="0" width="32" height="32" filterUnits="userSpaceOnUse" color-interpolation-filters="sRGB">
<feFlood flood-opacity="0" result="BackgroundImageFix"/>
<feColorMatrix in="SourceAlpha" type="matrix" values="0 0 0 0 0 0 0 0 0 0 0 0 0 0 0 0 0 0 127 0" result="hardAlpha"/>
<feOffset dy="2"/>
<feGaussianBlur stdDeviation="4"/>
<feColorMatrix type="matrix" values="0 0 0 0 0.12 0 0 0 0 0.146667 0 0 0 0 0.2 0 0 0 0.1 0"/>
<feBlend mode="normal" in2="BackgroundImageFix" result="effect1_dropShadow_2824_3286"/>
<feBlend mode="normal" in="SourceGraphic" in2="effect1_dropShadow_2824_3286" result="shape"/>
</filter>
<clipPath id="clip0_2824_3286">
<rect width="16" height="16" fill="white" transform="translate(8 6)"/>
</clipPath>
</defs>
</svg>
