<svg width="42" height="42" viewBox="0 0 42 42" fill="none" xmlns="http://www.w3.org/2000/svg">
<g filter="url(#filter0_d_3563_10454)">
<rect x="15" y="13" width="12" height="12" rx="6" fill="white"/>
<rect x="11.5" y="9.5" width="19" height="19" rx="9.5" stroke="white" stroke-width="7"/>
<mask id="path-3-inside-1_3563_10454" fill="white">
<path d="M21 24.625C17.8935 24.625 15.375 22.1065 15.375 19C15.375 15.8935 17.8935 13.375 21 13.375C24.1065 13.375 26.625 15.8935 26.625 19C26.625 22.1065 24.1065 24.625 21 24.625ZM21 23.875C23.6925 23.875 25.875 21.6925 25.875 19C25.875 16.3075 23.6925 14.125 21 14.125C18.3075 14.125 16.125 16.3075 16.125 19C16.125 21.6925 18.3075 23.875 21 23.875Z"/>
</mask>
<path d="M21 24.625C17.8935 24.625 15.375 22.1065 15.375 19C15.375 15.8935 17.8935 13.375 21 13.375C24.1065 13.375 26.625 15.8935 26.625 19C26.625 22.1065 24.1065 24.625 21 24.625ZM21 23.875C23.6925 23.875 25.875 21.6925 25.875 19C25.875 16.3075 23.6925 14.125 21 14.125C18.3075 14.125 16.125 16.3075 16.125 19C16.125 21.6925 18.3075 23.875 21 23.875Z" fill="#4680FF"/>
<path d="M21 23.625C18.4458 23.625 16.375 21.5542 16.375 19H14.375C14.375 22.6588 17.3412 25.625 21 25.625V23.625ZM16.375 19C16.375 16.4458 18.4458 14.375 21 14.375V12.375C17.3412 12.375 14.375 15.3412 14.375 19H16.375ZM21 14.375C23.5542 14.375 25.625 16.4458 25.625 19H27.625C27.625 15.3412 24.6588 12.375 21 12.375V14.375ZM25.625 19C25.625 21.5542 23.5542 23.625 21 23.625V25.625C24.6588 25.625 27.625 22.6588 27.625 19H25.625ZM21 24.875C24.2448 24.875 26.875 22.2448 26.875 19H24.875C24.875 21.1402 23.1402 22.875 21 22.875V24.875ZM26.875 19C26.875 15.7552 24.2448 13.125 21 13.125V15.125C23.1402 15.125 24.875 16.8598 24.875 19H26.875ZM21 13.125C17.7552 13.125 15.125 15.7552 15.125 19H17.125C17.125 16.8598 18.8598 15.125 21 15.125V13.125ZM15.125 19C15.125 22.2448 17.7552 24.875 21 24.875V22.875C18.8598 22.875 17.125 21.1402 17.125 19H15.125Z" fill="#4680FF" mask="url(#path-3-inside-1_3563_10454)"/>
<path d="M18 19.375C17.9005 19.375 17.8052 19.3355 17.7348 19.2652C17.6645 19.1948 17.625 19.0995 17.625 19C17.625 18.9005 17.6645 18.8052 17.7348 18.7348C17.8052 18.6645 17.9005 18.625 18 18.625H24C24.0995 18.625 24.1948 18.6645 24.2652 18.7348C24.3355 18.8052 24.375 18.9005 24.375 19C24.375 19.0995 24.3355 19.1948 24.2652 19.2652C24.1948 19.3355 24.0995 19.375 24 19.375H18Z" fill="#4680FF"/>
<path d="M20.625 15.999C20.625 15.8996 20.6645 15.8042 20.7348 15.7339C20.8052 15.6635 20.9005 15.624 21 15.624C21.0995 15.624 21.1948 15.6635 21.2652 15.7339C21.3355 15.8042 21.375 15.8996 21.375 15.999V21.999C21.375 22.0985 21.3355 22.1939 21.2652 22.2642C21.1948 22.3345 21.0995 22.374 21 22.374C20.9005 22.374 20.8052 22.3345 20.7348 22.2642C20.6645 22.1939 20.625 22.0985 20.625 21.999V15.999Z" fill="#4680FF"/>
</g>
<defs>
<filter id="filter0_d_3563_10454" x="0" y="0" width="42" height="42" filterUnits="userSpaceOnUse" color-interpolation-filters="sRGB">
<feFlood flood-opacity="0" result="BackgroundImageFix"/>
<feColorMatrix in="SourceAlpha" type="matrix" values="0 0 0 0 0 0 0 0 0 0 0 0 0 0 0 0 0 0 127 0" result="hardAlpha"/>
<feOffset dy="2"/>
<feGaussianBlur stdDeviation="4"/>
<feColorMatrix type="matrix" values="0 0 0 0 0.12 0 0 0 0 0.146667 0 0 0 0 0.2 0 0 0 0.1 0"/>
<feBlend mode="normal" in2="BackgroundImageFix" result="effect1_dropShadow_3563_10454"/>
<feBlend mode="normal" in="SourceGraphic" in2="effect1_dropShadow_3563_10454" result="shape"/>
</filter>
</defs>
</svg>
