<svg width="160" height="40" viewBox="0 0 160 40" fill="none" xmlns="http://www.w3.org/2000/svg">
<path d="M0 4C0 1.79086 1.79086 0 4 0H156C158.209 0 160 1.79086 160 4V36C160 38.2091 158.209 40 156 40H4C1.79086 40 0 38.2091 0 36V4Z" fill="#4680FF"/>
<path d="M55.5749 22.7764C55.5592 22.4025 55.3148 22.1959 54.9922 22.2036C54.6725 22.2112 54.4617 22.4214 54.4317 22.8036C54.4097 23.0844 54.4285 23.3683 54.4225 23.6506C54.4072 24.3592 54.2538 24.523 53.5454 24.5369C52.863 24.5504 52.1802 24.5413 51.4976 24.5414C49.9205 24.5415 48.3434 24.5427 46.7664 24.5405C45.6803 24.539 45.5861 24.4452 45.5809 23.3893C45.58 23.201 45.5895 23.0116 45.5722 22.8247C45.5354 22.427 45.349 22.2201 45.0333 22.2023C44.6926 22.183 44.4443 22.4147 44.4182 22.8243C44.3944 23.1995 44.4078 23.5772 44.4103 23.9538C44.4184 25.1729 44.9585 25.72 46.178 25.7269C47.449 25.7342 48.7201 25.7286 49.9912 25.7288C50.3678 25.7292 50.7444 25.7293 51.121 25.7291C52.0861 25.7288 53.0514 25.7422 54.0162 25.7238C54.8667 25.7075 55.4887 25.2155 55.5605 24.4693C55.6144 23.9094 55.5983 23.34 55.5749 22.7764Z" fill="white"/>
<path d="M45.7061 19.0266C46.9195 20.2407 48.1332 21.4547 49.3468 22.6687C49.3966 22.7186 49.4474 22.7676 49.497 22.8178C49.6923 23.0158 49.9201 23.1274 50.1961 23.0228C50.2861 22.9887 50.353 22.9373 50.4102 22.879C50.448 22.8528 50.485 22.824 50.5186 22.7914C51.1426 22.1847 53.8013 19.5174 54.4155 18.9007C54.4815 18.8344 54.5449 18.7632 54.5969 18.6859C54.7639 18.4375 54.741 18.1943 54.543 17.9769C54.3404 17.7547 54.0852 17.7454 53.8338 17.869C53.7117 17.929 53.6111 18.0394 53.5117 18.138C53.0983 18.548 51.6029 20.042 50.6017 21.0448C50.6022 19.4785 50.6024 17.9123 50.6021 16.346C50.602 15.8757 50.617 15.4046 50.5937 14.9354C50.572 14.4996 50.3604 14.2772 50.0199 14.2661C49.6705 14.2546 49.4586 14.4674 49.4109 14.8971C49.3929 15.0599 49.4024 15.226 49.4023 15.3906C49.4018 16.4252 49.402 17.4599 49.402 18.4946C49.402 19.2683 49.402 20.042 49.402 20.8157C49.3483 20.8395 49.2946 20.8632 49.2409 20.887C48.9299 20.5771 48.6185 20.2676 48.3079 19.9573C47.6591 19.3092 47.0188 18.6524 46.3586 18.0161C46.0606 17.7288 45.7151 17.7241 45.4777 17.9499C45.222 18.1934 45.231 18.4832 45.5095 18.8243C45.5688 18.8968 45.6396 18.96 45.7061 19.0266Z" fill="white"/>
<path d="M72.1874 19.428H77.2274V20.618H72.1874V19.428ZM72.3134 23.782H78.0254V25H70.9134V15.2H77.8294V16.418H72.3134V23.782ZM78.8542 25L82.0462 20.856L82.0322 21.542L78.9942 17.58H80.4922L82.8162 20.632H82.2422L84.5662 17.58H86.0362L82.9562 21.57L82.9702 20.856L86.1902 25H84.6642L82.2142 21.752L82.7602 21.836L80.3522 25H78.8542ZM91.5908 25.084C90.9748 25.084 90.4101 24.944 89.8968 24.664C89.3928 24.3747 88.9868 23.95 88.6788 23.39C88.3801 22.83 88.2308 22.13 88.2308 21.29C88.2308 20.45 88.3755 19.75 88.6648 19.19C88.9635 18.63 89.3648 18.21 89.8688 17.93C90.3821 17.65 90.9561 17.51 91.5908 17.51C92.3188 17.51 92.9628 17.6687 93.5228 17.986C94.0828 18.3033 94.5261 18.7467 94.8528 19.316C95.1795 19.876 95.3428 20.534 95.3428 21.29C95.3428 22.046 95.1795 22.7087 94.8528 23.278C94.5261 23.8473 94.0828 24.2907 93.5228 24.608C92.9628 24.9253 92.3188 25.084 91.5908 25.084ZM87.6568 27.716V17.58H88.9448V19.582L88.8608 21.304L89.0008 23.026V27.716H87.6568ZM91.4788 23.908C91.9548 23.908 92.3795 23.8007 92.7528 23.586C93.1355 23.3713 93.4341 23.068 93.6488 22.676C93.8728 22.2747 93.9848 21.8127 93.9848 21.29C93.9848 20.758 93.8728 20.3007 93.6488 19.918C93.4341 19.526 93.1355 19.2227 92.7528 19.008C92.3795 18.7933 91.9548 18.686 91.4788 18.686C91.0121 18.686 90.5875 18.7933 90.2048 19.008C89.8315 19.2227 89.5328 19.526 89.3088 19.918C89.0941 20.3007 88.9868 20.758 88.9868 21.29C88.9868 21.8127 89.0941 22.2747 89.3088 22.676C89.5328 23.068 89.8315 23.3713 90.2048 23.586C90.5875 23.8007 91.0121 23.908 91.4788 23.908ZM100.378 25.084C99.6311 25.084 98.9684 24.9207 98.3898 24.594C97.8111 24.2673 97.3538 23.8193 97.0178 23.25C96.6818 22.6713 96.5138 22.018 96.5138 21.29C96.5138 20.5527 96.6818 19.8993 97.0178 19.33C97.3538 18.7607 97.8111 18.3173 98.3898 18C98.9684 17.6733 99.6311 17.51 100.378 17.51C101.115 17.51 101.773 17.6733 102.352 18C102.94 18.3173 103.397 18.7607 103.724 19.33C104.06 19.89 104.228 20.5433 104.228 21.29C104.228 22.0273 104.06 22.6807 103.724 23.25C103.397 23.8193 102.94 24.2673 102.352 24.594C101.773 24.9207 101.115 25.084 100.378 25.084ZM100.378 23.908C100.854 23.908 101.278 23.8007 101.652 23.586C102.034 23.3713 102.333 23.068 102.548 22.676C102.762 22.2747 102.87 21.8127 102.87 21.29C102.87 20.758 102.762 20.3007 102.548 19.918C102.333 19.526 102.034 19.2227 101.652 19.008C101.278 18.7933 100.854 18.686 100.378 18.686C99.9018 18.686 99.4771 18.7933 99.1038 19.008C98.7304 19.2227 98.4318 19.526 98.2078 19.918C97.9838 20.3007 97.8718 20.758 97.8718 21.29C97.8718 21.8127 97.9838 22.2747 98.2078 22.676C98.4318 23.068 98.7304 23.3713 99.1038 23.586C99.4771 23.8007 99.9018 23.908 100.378 23.908ZM106.087 25V17.58H107.375V19.596L107.249 19.092C107.454 18.5787 107.799 18.1867 108.285 17.916C108.77 17.6453 109.367 17.51 110.077 17.51V18.812C110.021 18.8027 109.965 18.798 109.909 18.798C109.862 18.798 109.815 18.798 109.769 18.798C109.05 18.798 108.481 19.0127 108.061 19.442C107.641 19.8713 107.431 20.492 107.431 21.304V25H106.087ZM114.582 25.084C113.835 25.084 113.256 24.8833 112.846 24.482C112.435 24.0807 112.23 23.5067 112.23 22.76V15.956H113.574V22.704C113.574 23.1053 113.672 23.4133 113.868 23.628C114.073 23.8427 114.362 23.95 114.736 23.95C115.156 23.95 115.506 23.8333 115.786 23.6L116.206 24.566C116 24.7433 115.753 24.874 115.464 24.958C115.184 25.042 114.89 25.084 114.582 25.084ZM110.97 18.686V17.58H115.702V18.686H110.97Z" fill="white"/>
</svg>
