<svg width="80" height="15" viewBox="0 0 80 15" fill="none" xmlns="http://www.w3.org/2000/svg">
<mask id="path-1-inside-1_4220_8411" fill="white">
<path d="M0 0H80V11C80 13.2091 78.2091 15 76 15H0V0Z"/>
</mask>
<path d="M0 0H80V11C80 13.2091 78.2091 15 76 15H0V0Z" fill="white"/>
<path d="M-3 -1H81L79 1H3L-3 -1ZM81 11C81 13.7614 78.7614 16 76 16H-3L3 14H76C77.6569 14 79 12.6569 79 11H81ZM-3 16V-1L3 1V14L-3 16ZM81 -1V11C81 13.7614 78.7614 16 76 16V14C77.6569 14 79 12.6569 79 11V1L81 -1Z" fill="#94DD4D" mask="url(#path-1-inside-1_4220_8411)"/>
<path d="M9.84 2.264C10.836 2.264 11.616 2.468 12.18 2.9C12.78 3.344 13.116 4.028 13.2 4.964H11.904C11.784 4.412 11.568 4.004 11.232 3.764C10.896 3.512 10.416 3.392 9.768 3.392C9.204 3.392 8.772 3.476 8.472 3.644C8.1 3.836 7.92 4.148 7.92 4.58C7.92 4.964 8.124 5.264 8.556 5.492C8.748 5.6 9.24 5.78 10.044 6.02C11.196 6.38 11.952 6.656 12.288 6.86C13.02 7.304 13.392 7.916 13.392 8.708C13.392 9.476 13.092 10.076 12.492 10.52C11.892 10.952 11.052 11.168 9.972 11.168C8.928 11.168 8.112 10.952 7.524 10.544C6.816 10.04 6.432 9.248 6.36 8.168H7.656C7.752 8.84 7.992 9.332 8.376 9.62C8.724 9.884 9.252 10.016 9.972 10.016C10.62 10.016 11.136 9.896 11.52 9.68C11.904 9.464 12.096 9.164 12.096 8.78C12.096 8.3 11.82 7.928 11.28 7.652C11.088 7.556 10.524 7.364 9.576 7.076C8.52 6.74 7.872 6.512 7.608 6.368C6.948 5.972 6.624 5.396 6.624 4.652C6.624 3.896 6.936 3.308 7.572 2.876C8.172 2.468 8.928 2.264 9.84 2.264ZM15.0895 4.796H16.3615V8.576C16.3615 9.104 16.4695 9.488 16.6975 9.728C16.9135 9.968 17.2735 10.1 17.7655 10.1C18.1015 10.1 18.4015 9.956 18.6895 9.692C18.9775 9.416 19.1815 9.044 19.2895 8.588V4.796H20.5615V11H19.2895V10.16C18.7615 10.832 18.1135 11.168 17.3335 11.168C15.8335 11.168 15.0895 10.328 15.0895 8.66V4.796ZM25.7233 4.628C26.6353 4.628 27.3433 4.952 27.8713 5.6C28.3513 6.2 28.5913 6.968 28.5913 7.928C28.5913 8.84 28.3513 9.596 27.8833 10.196C27.3793 10.844 26.6713 11.168 25.7833 11.168C25.0153 11.168 24.3913 10.808 23.8873 10.088V13.376H22.6153V4.796H23.8033V5.54C24.2353 4.928 24.8833 4.628 25.7233 4.628ZM25.5313 5.66C24.9793 5.66 24.5473 5.876 24.2473 6.32C23.9833 6.704 23.8513 7.22 23.8513 7.856V7.964C23.8513 8.624 24.0073 9.164 24.3433 9.572C24.6313 9.944 25.0153 10.136 25.4953 10.136C26.1193 10.136 26.5753 9.932 26.8753 9.524C27.1393 9.14 27.2833 8.612 27.2833 7.928C27.2833 7.244 27.1513 6.716 26.9113 6.332C26.6113 5.876 26.1553 5.66 25.5313 5.66ZM33.4952 4.628C34.4072 4.628 35.1152 4.952 35.6432 5.6C36.1232 6.2 36.3632 6.968 36.3632 7.928C36.3632 8.84 36.1232 9.596 35.6552 10.196C35.1512 10.844 34.4432 11.168 33.5552 11.168C32.7872 11.168 32.1632 10.808 31.6592 10.088V13.376H30.3872V4.796H31.5752V5.54C32.0072 4.928 32.6552 4.628 33.4952 4.628ZM33.3032 5.66C32.7512 5.66 32.3192 5.876 32.0192 6.32C31.7552 6.704 31.6232 7.22 31.6232 7.856V7.964C31.6232 8.624 31.7792 9.164 32.1152 9.572C32.4032 9.944 32.7872 10.136 33.2672 10.136C33.8912 10.136 34.3472 9.932 34.6472 9.524C34.9112 9.14 35.0552 8.612 35.0552 7.928C35.0552 7.244 34.9232 6.716 34.6832 6.332C34.3832 5.876 33.9272 5.66 33.3032 5.66ZM41.0151 4.628C41.9511 4.628 42.7071 4.94 43.2711 5.564C43.8231 6.176 44.1111 6.956 44.1111 7.904C44.1111 8.84 43.8351 9.62 43.2831 10.22C42.7071 10.844 41.9511 11.168 41.0151 11.168C40.0791 11.168 39.3231 10.844 38.7471 10.22C38.1951 9.62 37.9191 8.84 37.9191 7.904C37.9191 6.956 38.1951 6.176 38.7591 5.564C39.3231 4.94 40.0791 4.628 41.0151 4.628ZM41.0151 5.672C40.4271 5.672 39.9711 5.9 39.6471 6.368C39.3591 6.764 39.2271 7.28 39.2271 7.904C39.2271 8.528 39.3591 9.032 39.6471 9.428C39.9711 9.884 40.4271 10.124 41.0151 10.124C41.6031 10.124 42.0591 9.884 42.3951 9.428C42.6831 9.02 42.8271 8.516 42.8271 7.904C42.8271 7.28 42.6831 6.764 42.3951 6.368C42.0591 5.9 41.6031 5.672 41.0151 5.672ZM48.7992 4.628C49.1112 4.628 49.3872 4.676 49.6032 4.784V6.056C49.2912 5.96 48.9912 5.924 48.7032 5.924C48.3192 5.924 47.9712 6.08 47.6712 6.392C47.3472 6.728 47.1912 7.172 47.1912 7.712V11H45.9192V4.796H47.1912V5.732C47.3472 5.396 47.5512 5.144 47.7912 4.976C48.0792 4.736 48.4152 4.628 48.7992 4.628ZM52.8681 2.792V4.796H54.2841V5.852H52.8681V9.452C52.8681 9.62 52.9041 9.74 52.9761 9.824C53.0481 9.896 53.1561 9.944 53.3121 9.944H54.1281V11H53.1081C52.5801 11 52.1841 10.856 51.9441 10.58C51.7041 10.316 51.5961 9.944 51.5961 9.452V5.852H50.4441V4.796H51.5961V3.32L52.8681 2.792ZM56.8083 2.312C57.0603 2.312 57.2763 2.384 57.4443 2.552C57.6123 2.708 57.6963 2.912 57.6963 3.164C57.6963 3.416 57.6003 3.62 57.4323 3.788C57.2643 3.944 57.0483 4.028 56.8083 4.028C56.5563 4.028 56.3523 3.944 56.1843 3.788C56.0163 3.62 55.9323 3.404 55.9323 3.164C55.9323 2.912 56.0163 2.708 56.1843 2.552C56.3523 2.384 56.5563 2.312 56.8083 2.312ZM56.1723 4.796H57.4443V11H56.1723V4.796ZM59.1061 4.796H60.4861L62.0461 9.416L63.6061 4.796H64.9861L62.6821 11H61.4101L59.1061 4.796ZM68.9941 4.628C70.0021 4.628 70.7821 4.964 71.3101 5.66C71.7901 6.284 72.0421 7.148 72.0541 8.252H67.3501C67.3981 8.852 67.5541 9.32 67.8421 9.644C68.1301 9.956 68.5261 10.124 69.0301 10.124C69.4741 10.124 69.8341 10.016 70.1101 9.812C70.3261 9.644 70.5061 9.368 70.6741 9.008H71.9461C71.8021 9.584 71.5261 10.076 71.0941 10.46C70.5541 10.928 69.8701 11.168 69.0421 11.168C68.1301 11.168 67.3981 10.88 66.8701 10.316C66.2941 9.716 66.0061 8.912 66.0061 7.892C66.0061 6.968 66.2701 6.2 66.8221 5.576C67.3501 4.94 68.0821 4.628 68.9941 4.628ZM69.0301 5.672C68.5501 5.672 68.1781 5.804 67.8901 6.092C67.6261 6.368 67.4461 6.764 67.3741 7.292H70.7221C70.6021 6.212 70.0381 5.672 69.0301 5.672Z" fill="#7CB93F"/>
</svg>
